<svg version="1.2" xmlns="http://www.w3.org/2000/svg" viewBox="0 0 660 660" width="66" height="66">
	<style>
		.s0 { fill: #41465e } 
		.s1 { fill: #ffffff } 
	</style>
	<g id="Background">
		<path id="Path 0" class="s0" d="m294.5 114.55c-6.6 0.72-17.74 2.47-24.75 3.88-7.01 1.41-17.81 4.2-24 6.2-6.19 1.99-15.97 5.63-21.75 8.09-5.78 2.45-13.88 6.3-18 8.55-4.13 2.25-11.78 6.85-17 10.22-5.22 3.38-14 9.77-19.5 14.2-5.5 4.43-14.95 13.18-21 19.44-6.05 6.27-14.23 15.66-18.18 20.88-3.95 5.22-9.73 13.54-12.84 18.49-3.12 4.95-8.28 14.4-11.48 21-3.2 6.6-7.61 16.95-9.8 23-2.2 6.05-5.16 15.73-6.58 21.5-1.42 5.77-3.28 14.55-4.13 19.5-0.84 4.95-2 15.75-2.56 24-0.6 8.75-0.9 44.99-0.73 87 0.28 66.33 0.44 72.26 2.05 75.25 0.96 1.79 2.76 4.2 4 5.37 1.24 1.17 4.05 2.96 6.25 3.98 3.86 1.79 11.69 1.86 221.75 1.88 211.18 0.02 217.88-0.04 222-1.87 2.34-1.03 5.46-3.17 6.94-4.75 1.47-1.57 3.16-4.1 3.75-5.61 0.68-1.76 1.06-15.56 1.06-38.25v-35.5l44.83-0.5c6.69-4.71 9.51-7.94 10.82-10.5 1.26-2.48 2.31-5.96 2.32-7.75 0.02-1.79-0.98-5.35-2.22-7.92-1.24-2.58-3.6-5.68-5.25-6.91-1.65-1.22-4.8-2.72-7-3.32-2.26-0.61-12.59-1.09-23.75-1.09l-19.75-0.01c-0.64-58.4-0.98-64.14-2.95-75-1.25-6.87-3.54-17-5.08-22.5-1.55-5.5-2.74-10.04-2.64-10.09 0.09-0.04 14.08-8.59 31.08-19 17-10.4 31.96-20.15 33.25-21.66 1.29-1.51 2.79-4.55 3.34-6.75 0.55-2.2 0.75-5.46 0.45-7.25-0.31-1.79-1.54-5.02-2.75-7.19-1.21-2.17-3.78-4.85-5.7-5.95-1.92-1.1-4.85-2.31-6.5-2.7-1.65-0.38-4.8-0.33-7 0.13-2.38 0.49-15.32 7.74-32 17.91-15.4 9.39-28.34 17.07-28.75 17.06-0.41 0-1.83-2.15-3.14-4.76-1.32-2.61-5.52-9.47-9.34-15.25-3.82-5.78-9.81-14.1-13.32-18.5-3.51-4.4-9.99-11.77-14.41-16.38-4.42-4.61-12.31-11.97-17.54-16.35-5.23-4.38-14.9-11.59-21.5-16.02-6.6-4.43-18.75-11.36-27-15.4-8.25-4.04-21.19-9.37-28.75-11.85-7.56-2.47-19.26-5.6-26-6.95-6.74-1.35-18.66-3.15-26.5-4-7.84-0.85-17.96-1.49-22.5-1.43-4.54 0.07-13.65 0.72-20.25 1.43z"/>
		<path id="Path 1" fill-rule="evenodd" class="s1" d="m320.5 151.48c12.19 0.24 21.71 1 29.5 2.38 6.32 1.11 16.9 3.66 23.5 5.67 6.6 2 16.73 5.76 22.5 8.34 5.77 2.59 14.77 7.23 20 10.32 5.23 3.09 13.32 8.45 18 11.91 4.68 3.46 14.14 11.94 21.04 18.84 6.9 6.91 15.22 16.16 18.48 20.56 3.26 4.4 8.76 12.73 12.22 18.5 3.45 5.78 6.29 10.95 6.31 11.5 0.01 0.55-46.23 29.31-102.76 63.9-56.54 34.6-103.86 63.85-105.17 65-1.31 1.16-3.21 3.9-4.23 6.1-1.02 2.2-1.85 5.58-1.85 7.5 0 1.93 0.82 5.3 1.81 7.5 0.99 2.2 3.23 5.24 4.98 6.75 1.74 1.51 4.86 3.2 6.92 3.74 2.38 0.63 43.61 1 221.25 1.01v48h-393v-67.75c0-41.4 0.41-71.06 1.05-76.25 0.58-4.67 1.97-13 3.1-18.5 1.13-5.5 3.61-14.73 5.51-20.5 1.91-5.77 6.17-16.12 9.48-23 3.31-6.87 8.97-17 12.58-22.5 3.61-5.5 8.56-12.47 11-15.5 2.43-3.02 8.78-9.93 14.1-15.35 5.32-5.42 13.28-12.68 17.68-16.12 4.4-3.45 11.6-8.62 16-11.5 4.4-2.87 13.4-7.87 20-11.1 6.6-3.24 17.4-7.67 24-9.86 6.6-2.18 16.73-4.91 22.5-6.05 5.77-1.14 13.88-2.48 18-2.99 4.13-0.5 15.6-0.75 25.5-0.55zm185.62 145.32c0.38 0.39 1.61 5.2 2.73 10.7 1.11 5.5 2.5 14.39 3.09 19.75 0.58 5.36 1.06 20.1 1.06 55.75h-74.2c-46.11 0-73.84-0.35-73.25-0.94 0.52-0.51 32.21-20.06 70.41-43.44 38.2-23.38 69.77-42.2 70.16-41.82z"/>
		<path id="Path 2" class="s0" d="m320.5 206.16c-1.1 0.61-3.28 2.28-4.84 3.72-1.56 1.44-3.47 3.86-4.25 5.37-1.15 2.24-1.41 10.84-1.41 46.75 0 39.83 0.17 44.35 1.75 47.7 0.96 2.03 3.55 4.97 5.75 6.51 2.26 1.6 5.95 3.07 8.5 3.4 2.93 0.38 5.89 0.05 8.5-0.95 2.2-0.84 5.46-3.14 7.25-5.1 1.79-1.96 3.73-5.47 4.32-7.81 0.71-2.8 0.96-18.64 0.75-46.32l-0.32-42.08c-4.3-6.53-7.24-9.22-9.5-10.35-2.52-1.26-5.95-1.99-9.25-1.97-2.89 0.02-6.15 0.53-7.25 1.13zm73.37 0.91c-1.99 1.09-4.91 3.85-6.5 6.13l-2.87 4.15c-0.52 37.42-0.23 47.57 0.43 49.9 0.59 2.06 2.53 5.35 4.32 7.31 1.79 1.96 5.05 4.26 7.25 5.11 2.71 1.05 5.45 1.34 8.5 0.89 2.48-0.35 6.19-1.75 8.25-3.1 2.06-1.35 4.65-4.26 5.75-6.46 1.83-3.67 2-6 2-28 0-14.57-0.42-25.08-1.06-26.75-0.59-1.51-2.28-4.03-3.75-5.59-1.48-1.56-3.93-3.47-5.44-4.25-1.51-0.78-5.11-1.39-8-1.37-3.27 0.03-6.61 0.79-8.88 2.03z"/>
	</g>
</svg>